<svg id="Capa_1" data-name="Capa 1" xmlns="http://www.w3.org/2000/svg" xmlns:xlink="http://www.w3.org/1999/xlink" viewBox="0 0 154.14 32.09"><defs><style>.cls-1{fill:url(#Degradado_sin_nombre_7);}</style><linearGradient id="Degradado_sin_nombre_7" x1="1878.86" y1="1436.88" x2="2033" y2="1436.88" gradientUnits="userSpaceOnUse"><stop offset="0" stop-color="#f00000"/><stop offset="1" stop-color="#dc281e"/></linearGradient></defs><title>logo</title><path class="cls-1" d="M1968.29,1449.25c0,.25.09.4.26.4a.78.78,0,0,0,.37-.13l48-27.59a5.1,5.1,0,0,1,2.77-.74h10.56a2.43,2.43,0,0,1,2.71,2.39v17.84a4.37,4.37,0,0,1-2.7,4.55l-12.8,6.82a1,1,0,0,1-.44.14c-.15,0-.3-.11-.3-.51v-20.81c0-.24-.08-.41-.27-.41a.84.84,0,0,0-.37.14l-35.1,20.18a5.21,5.21,0,0,1-2.7.73h-23.27a2.43,2.43,0,0,1-2.72-2.4v-25.71c0-.19-.09-.37-.27-.37a.75.75,0,0,0-.37.14l-23.17,12.3c-.23.13-.29.23-.29.33s0,.16.2.31l16.55,14.63c.22.19.37.34.37.51s-.24.24-.54.24h-15a4,4,0,0,1-2.71-.71l-10-8.86a.5.5,0,0,0-.31-.14.79.79,0,0,0-.31.08l-16.77,8.92a5,5,0,0,1-2.71.7h-15.43a2.42,2.42,0,0,1-2.73-2.39v-17.49a4.37,4.37,0,0,1,2.72-4.56l12.88-6.85a.78.78,0,0,1,.34-.09c.2,0,.31.18.31.57v23.43c0,.25.06.35.26.35a1,1,0,0,0,.39-.13l43.52-23.17a5.14,5.14,0,0,1,2.87-.71h23.42a2.44,2.44,0,0,1,2.72,2.39l0,25.68Z" transform="translate(-1878.86 -1420.84)"/></svg>