<?xml version="1.0" encoding="utf-8"?>
<!-- Generator: Adobe Illustrator 23.0.5, SVG Export Plug-In . SVG Version: 6.00 Build 0)  -->
<svg version="1.1" id="Capa_1" xmlns="http://www.w3.org/2000/svg" xmlns:xlink="http://www.w3.org/1999/xlink" x="0px" y="0px"
	 viewBox="0 0 154.1 32.1" style="enable-background:new 0 0 154.1 32.1;" xml:space="preserve">
<style type="text/css">
	.st0{fill:url(#SVGID_1_);}
	.st1{fill:url(#SVGID_2_);}
	.st2{fill:url(#SVGID_3_);}
	.st3{fill:url(#SVGID_4_);}
	.st4{fill:url(#SVGID_5_);}
	.st5{fill:url(#SVGID_6_);}
	.st6{fill:url(#SVGID_7_);}
	.st7{fill:url(#SVGID_8_);}
	.st8{fill:url(#SVGID_9_);}
	.st9{fill:url(#SVGID_10_);}
	.st10{fill:url(#SVGID_11_);}
	.st11{fill:url(#SVGID_12_);}
	.st12{fill:url(#SVGID_13_);}
	.st13{fill:url(#SVGID_14_);}
	.st14{fill:url(#SVGID_15_);}
</style>
<title>logo</title>
<g>
	<linearGradient id="SVGID_1_" gradientUnits="userSpaceOnUse" x1="33.8834" y1="6.8425" x2="42.9625" y2="6.8425">
		<stop  offset="0" style="stop-color:#F00000"/>
		<stop  offset="1" style="stop-color:#DC281E"/>
	</linearGradient>
	<path class="st0" d="M42.9,9.2L42.9,9.2c0,1.4-0.3,2.4-1.1,3c-0.8,0.7-1.8,1-3.2,1c-1.4,0-2.6-0.4-3.4-1.2
		c-0.8-0.8-1.3-1.9-1.3-3.3V5c0-1.4,0.4-2.6,1.2-3.3c0.8-0.8,1.9-1.2,3.3-1.2c1.5,0,2.6,0.3,3.4,1c0.8,0.7,1.2,1.7,1.1,3l0,0.1h-2.5
		c0-0.8-0.2-1.3-0.5-1.7c-0.3-0.3-0.8-0.5-1.5-0.5c-0.7,0-1.1,0.2-1.5,0.7c-0.3,0.4-0.5,1.1-0.5,2v3.7c0,0.9,0.2,1.6,0.5,2
		c0.4,0.4,0.9,0.7,1.6,0.7c0.6,0,1.1-0.2,1.4-0.5c0.3-0.3,0.4-0.9,0.4-1.7H42.9z"/>
	<linearGradient id="SVGID_2_" gradientUnits="userSpaceOnUse" x1="44.3631" y1="6.8425" x2="54.1323" y2="6.8425">
		<stop  offset="0" style="stop-color:#F00000"/>
		<stop  offset="1" style="stop-color:#DC281E"/>
	</linearGradient>
	<path class="st1" d="M54.1,8.6c0,1.5-0.4,2.6-1.3,3.4c-0.9,0.8-2.1,1.2-3.6,1.2c-1.5,0-2.7-0.4-3.5-1.2s-1.3-2-1.3-3.4V5.1
		c0-1.5,0.4-2.6,1.3-3.4c0.9-0.8,2.1-1.2,3.5-1.2c1.5,0,2.7,0.4,3.6,1.2s1.3,2,1.3,3.4V8.6z M51.5,5.1c0-0.9-0.2-1.6-0.6-2
		c-0.4-0.5-1-0.7-1.7-0.7c-0.8,0-1.3,0.2-1.7,0.7c-0.4,0.5-0.6,1.1-0.6,2v3.5c0,0.9,0.2,1.6,0.6,2.1c0.4,0.5,1,0.7,1.7,0.7
		s1.3-0.2,1.7-0.7c0.4-0.5,0.6-1.1,0.6-2.1V5.1z"/>
	<linearGradient id="SVGID_3_" gradientUnits="userSpaceOnUse" x1="55.9303" y1="6.8425" x2="67.7823" y2="6.8425">
		<stop  offset="0" style="stop-color:#F00000"/>
		<stop  offset="1" style="stop-color:#DC281E"/>
	</linearGradient>
	<path class="st2" d="M61.8,9.8L61.8,9.8l2.6-9.2h3.4V13h-2.6V5.2l-0.1,0L62.7,13H61l-2.4-7.7l-0.1,0V13h-2.6V0.7h3.4L61.8,9.8z"/>
	<linearGradient id="SVGID_4_" gradientUnits="userSpaceOnUse" x1="69.8384" y1="6.8425" x2="78.7044" y2="6.8425">
		<stop  offset="0" style="stop-color:#F00000"/>
		<stop  offset="1" style="stop-color:#DC281E"/>
	</linearGradient>
	<path class="st3" d="M72.4,8.6V13h-2.6V0.7h4.5c1.3,0,2.4,0.4,3.2,1.1c0.8,0.7,1.2,1.7,1.2,2.9c0,1.2-0.4,2.1-1.2,2.9
		c-0.8,0.7-1.9,1.1-3.2,1.1H72.4z M72.4,6.7h1.9c0.6,0,1-0.2,1.3-0.6c0.3-0.4,0.5-0.9,0.5-1.5c0-0.6-0.2-1.1-0.5-1.5
		c-0.3-0.4-0.7-0.6-1.3-0.6h-1.9V6.7z"/>
	<linearGradient id="SVGID_5_" gradientUnits="userSpaceOnUse" x1="80.401" y1="6.8468" x2="89.396" y2="6.8468">
		<stop  offset="0" style="stop-color:#F00000"/>
		<stop  offset="1" style="stop-color:#DC281E"/>
	</linearGradient>
	<path class="st4" d="M83,8.1v5h-2.6V0.7h4c1.3,0,2.4,0.3,3.1,1c0.8,0.6,1.1,1.5,1.1,2.7c0,0.6-0.2,1.2-0.5,1.7
		c-0.3,0.5-0.8,0.8-1.4,1.1c0.7,0.2,1.2,0.6,1.5,1.1c0.3,0.5,0.5,1.1,0.5,1.9v0.9c0,0.3,0,0.7,0.1,1.1c0.1,0.4,0.2,0.7,0.5,0.8V13
		h-2.7c-0.2-0.2-0.4-0.5-0.4-0.9c-0.1-0.4-0.1-0.8-0.1-1.2V10c0-0.6-0.1-1.1-0.4-1.5c-0.3-0.3-0.7-0.5-1.2-0.5H83z M83,6.2h1.4
		c0.6,0,1-0.2,1.3-0.5C86,5.4,86.1,5,86.1,4.4c0-0.6-0.1-1-0.4-1.4c-0.3-0.3-0.7-0.5-1.3-0.5H83V6.2z"/>
	<linearGradient id="SVGID_6_" gradientUnits="userSpaceOnUse" x1="89.9867" y1="6.8425" x2="100.2904" y2="6.8425">
		<stop  offset="0" style="stop-color:#F00000"/>
		<stop  offset="1" style="stop-color:#DC281E"/>
	</linearGradient>
	<path class="st5" d="M96.8,10.4h-3.4L92.7,13H90l3.8-12.4h2.7l3.8,12.4h-2.7L96.8,10.4z M94,8.5h2.3l-1.1-3.9h-0.1L94,8.5z"/>
	<linearGradient id="SVGID_7_" gradientUnits="userSpaceOnUse" x1="101.3512" y1="6.8425" x2="113.2032" y2="6.8425">
		<stop  offset="0" style="stop-color:#F00000"/>
		<stop  offset="1" style="stop-color:#DC281E"/>
	</linearGradient>
	<path class="st6" d="M107.2,9.8L107.2,9.8l2.6-9.2h3.4V13h-2.6V5.2l-0.1,0l-2.4,7.8h-1.7L104,5.3l-0.1,0V13h-2.6V0.7h3.4L107.2,9.8
		z"/>
	<linearGradient id="SVGID_8_" gradientUnits="userSpaceOnUse" x1="115.0105" y1="6.8425" x2="124.7796" y2="6.8425">
		<stop  offset="0" style="stop-color:#F00000"/>
		<stop  offset="1" style="stop-color:#DC281E"/>
	</linearGradient>
	<path class="st7" d="M124.8,8.6c0,1.5-0.4,2.6-1.3,3.4c-0.9,0.8-2.1,1.2-3.6,1.2c-1.5,0-2.7-0.4-3.5-1.2c-0.9-0.8-1.3-2-1.3-3.4
		V5.1c0-1.5,0.4-2.6,1.3-3.4c0.9-0.8,2.1-1.2,3.5-1.2c1.5,0,2.7,0.4,3.6,1.2c0.9,0.8,1.3,2,1.3,3.4V8.6z M122.2,5.1
		c0-0.9-0.2-1.6-0.6-2c-0.4-0.5-1-0.7-1.7-0.7c-0.8,0-1.3,0.2-1.7,0.7c-0.4,0.5-0.6,1.1-0.6,2v3.5c0,0.9,0.2,1.6,0.6,2.1
		c0.4,0.5,1,0.7,1.7,0.7c0.8,0,1.3-0.2,1.7-0.7c0.4-0.5,0.6-1.1,0.6-2.1V5.1z"/>
	<linearGradient id="SVGID_9_" gradientUnits="userSpaceOnUse" x1="126.2996" y1="6.8425" x2="135.1487" y2="6.8425">
		<stop  offset="0" style="stop-color:#F00000"/>
		<stop  offset="1" style="stop-color:#DC281E"/>
	</linearGradient>
	<path class="st8" d="M132.5,9.8c0-0.5-0.1-0.9-0.4-1.2c-0.3-0.3-0.8-0.6-1.5-0.8c-1.4-0.4-2.4-1-3.1-1.5c-0.7-0.6-1-1.4-1-2.4
		c0-1,0.4-1.8,1.2-2.5s1.8-1,3-1c1.3,0,2.4,0.3,3.1,1c0.8,0.7,1.2,1.6,1.2,2.7l0,0.1h-2.5c0-0.6-0.2-1.1-0.5-1.5
		c-0.3-0.3-0.8-0.5-1.3-0.5c-0.5,0-0.9,0.2-1.2,0.5c-0.3,0.3-0.4,0.7-0.4,1.1c0,0.4,0.2,0.8,0.5,1c0.3,0.3,0.9,0.6,1.6,0.9
		c1.3,0.4,2.3,0.9,2.9,1.5c0.7,0.6,1,1.4,1,2.4c0,1.1-0.4,1.9-1.2,2.5c-0.8,0.6-1.8,0.9-3.1,0.9c-1.3,0-2.4-0.3-3.3-1
		c-0.9-0.7-1.3-1.7-1.3-3l0-0.1h2.5c0,0.8,0.2,1.3,0.5,1.7c0.3,0.3,0.8,0.5,1.5,0.5c0.6,0,1-0.1,1.3-0.4
		C132.4,10.7,132.5,10.3,132.5,9.8z"/>
	<linearGradient id="SVGID_10_" gradientUnits="userSpaceOnUse" x1="51.2503" y1="25.2475" x2="60.0794" y2="25.2475">
		<stop  offset="0" style="stop-color:#F00000"/>
		<stop  offset="1" style="stop-color:#DC281E"/>
	</linearGradient>
	<path class="st9" d="M60.1,20.9h-3.2v10.5h-2.6V20.9h-3.1v-1.9h8.8V20.9z"/>
	<linearGradient id="SVGID_11_" gradientUnits="userSpaceOnUse" x1="61.259" y1="25.3368" x2="70.7148" y2="25.3368">
		<stop  offset="0" style="stop-color:#F00000"/>
		<stop  offset="1" style="stop-color:#DC281E"/>
	</linearGradient>
	<path class="st10" d="M70.7,19.1v8.1c0,1.4-0.4,2.5-1.3,3.3c-0.9,0.8-2,1.2-3.4,1.2c-1.4,0-2.5-0.4-3.4-1.2
		c-0.9-0.8-1.3-1.9-1.3-3.3v-8.1h2.6v8.1c0,0.8,0.2,1.5,0.6,1.9c0.4,0.4,0.9,0.7,1.6,0.7c0.7,0,1.2-0.2,1.6-0.7
		c0.4-0.4,0.6-1.1,0.6-1.9v-8.1H70.7z"/>
	<linearGradient id="SVGID_12_" gradientUnits="userSpaceOnUse" x1="75.9865" y1="25.2475" x2="86.2902" y2="25.2475">
		<stop  offset="0" style="stop-color:#F00000"/>
		<stop  offset="1" style="stop-color:#DC281E"/>
	</linearGradient>
	<path class="st11" d="M82.8,28.8h-3.4l-0.8,2.7H76l3.8-12.4h2.7l3.8,12.4h-2.7L82.8,28.8z M80,26.9h2.3l-1.1-3.9h-0.1L80,26.9z"/>
	<linearGradient id="SVGID_13_" gradientUnits="userSpaceOnUse" x1="87.1196" y1="25.3368" x2="96.5754" y2="25.3368">
		<stop  offset="0" style="stop-color:#F00000"/>
		<stop  offset="1" style="stop-color:#DC281E"/>
	</linearGradient>
	<path class="st12" d="M96.6,19.1v8.1c0,1.4-0.4,2.5-1.3,3.3c-0.9,0.8-2,1.2-3.4,1.2c-1.4,0-2.5-0.4-3.4-1.2
		c-0.9-0.8-1.3-1.9-1.3-3.3v-8.1h2.6v8.1c0,0.8,0.2,1.5,0.6,1.9c0.4,0.4,0.9,0.7,1.6,0.7c0.7,0,1.2-0.2,1.6-0.7
		c0.4-0.4,0.6-1.1,0.6-1.9v-8.1H96.6z"/>
	<linearGradient id="SVGID_14_" gradientUnits="userSpaceOnUse" x1="97.7828" y1="25.2475" x2="106.6119" y2="25.2475">
		<stop  offset="0" style="stop-color:#F00000"/>
		<stop  offset="1" style="stop-color:#DC281E"/>
	</linearGradient>
	<path class="st13" d="M106.6,20.9h-3.2v10.5h-2.6V20.9h-3.1v-1.9h8.8V20.9z"/>
	<linearGradient id="SVGID_15_" gradientUnits="userSpaceOnUse" x1="107.3768" y1="25.2475" x2="117.146" y2="25.2475">
		<stop  offset="0" style="stop-color:#F00000"/>
		<stop  offset="1" style="stop-color:#DC281E"/>
	</linearGradient>
	<path class="st14" d="M117.1,27c0,1.5-0.4,2.6-1.3,3.4c-0.9,0.8-2.1,1.2-3.6,1.2c-1.5,0-2.7-0.4-3.5-1.2c-0.9-0.8-1.3-2-1.3-3.4
		v-3.5c0-1.5,0.4-2.6,1.3-3.4c0.9-0.8,2.1-1.2,3.5-1.2c1.5,0,2.7,0.4,3.6,1.2c0.9,0.8,1.3,2,1.3,3.4V27z M114.6,23.5
		c0-0.9-0.2-1.6-0.6-2c-0.4-0.5-1-0.7-1.7-0.7c-0.8,0-1.3,0.2-1.7,0.7c-0.4,0.5-0.6,1.1-0.6,2V27c0,0.9,0.2,1.6,0.6,2.1
		c0.4,0.5,1,0.7,1.7,0.7c0.8,0,1.3-0.2,1.7-0.7c0.4-0.5,0.6-1.1,0.6-2.1V23.5z"/>
</g>
</svg>
